<svg width="1792" height="1193" viewBox="0 0 1792 1193" fill="none" xmlns="http://www.w3.org/2000/svg">
<g clip-path="url(#clip0_4_3)">
<rect width="1792" height="1193" fill="black"/>
<path d="M390.411 164.83C388.84 160.114 386.1 155.654 383.437 151.499C379.98 146.111 376.143 140.915 371.896 136.125C369.612 133.539 366.47 129.65 363.05 128.356C362.419 128.123 361.967 127.886 361.282 127.899C360.894 127.79 360.574 127.762 360.282 127.785C359.035 127.456 344.936 123.978 338.606 122.191C328.614 119.244 318.982 115.428 309.793 110.496C305.86 108.376 301.978 106.127 298.334 103.536C297.434 102.892 296.539 102.234 295.676 101.553C292.392 97.1289 289.035 92.1841 284.847 88.6194C284.555 88.4686 284.262 88.3132 283.97 88.1533C284.628 91.7454 286.738 95.0769 288.587 98.1663C293.173 105.881 298.526 113.156 303.933 120.308C309.057 127.081 314.51 133.754 321.037 139.242C326.472 143.817 332.669 147.432 338.976 150.658C346.051 154.264 353.075 157.98 360.483 160.841C369.69 164.396 379.044 167.216 388.799 168.715C388.383 168.651 387.954 168.582 387.534 168.514C388.068 168.555 388.575 168.678 389.059 168.893C391.978 169.926 390.795 165.977 390.411 164.83Z" fill="#FFAF0F"/>
<path d="M365.347 129.96C364.269 125.107 361.976 120.395 359.734 115.994C356.815 110.295 353.513 104.752 349.736 99.5693C347.987 97.0832 346.023 94.7707 343.845 92.6365C343.114 92.0926 342.383 91.5488 341.648 91.0049C334.907 89.2363 327.75 89.9767 320.987 88.1943C315.1 86.6497 309.537 84.2869 304.321 81.2204C301.334 79.2918 298.439 77.2078 295.735 74.9045C295.082 74.3515 294.443 73.794 293.812 73.2227C293.712 73.1222 293.598 73.0216 293.497 72.9257C292.931 72.3544 292.392 71.7512 291.835 71.1662C291.766 71.0702 291.711 70.9788 291.643 70.8828C289.72 68.223 287.861 65.4901 285.76 62.9812C282.152 58.6578 278.307 53.3611 273.283 50.5414C273.571 50.7059 273.859 50.875 274.146 51.0441C273.827 50.7059 273.452 50.4637 273 50.2717C273.018 50.6373 273.119 50.9847 273.201 51.3366C273.192 51.3137 273.174 51.2909 273.155 51.268C273.178 51.3366 273.201 51.3914 273.224 51.4554C273.311 51.8119 273.434 52.1546 273.585 52.4974C275.169 57.4879 277.074 62.3459 279.367 67.044C280.81 69.8089 282.271 72.5692 283.737 75.3341C284.025 75.8917 284.349 76.4355 284.66 76.9839C286.295 79.8082 287.866 82.6782 289.688 85.3974C294.219 92.1566 298.955 98.5182 304.44 104.528C309.724 110.304 315.62 115.793 322.142 120.144C328.372 124.284 334.976 128.132 342.137 130.39C349.061 132.57 356.418 132.771 363.552 133.909C364.844 134.53 365.552 134.124 365.657 132.689C365.557 131.779 365.456 130.87 365.347 129.96Z" fill="#FFBB0F"/>
<path d="M365.571 130.929C365.475 125.952 364.187 120.884 362.876 116.118C361.182 109.948 359.072 103.842 356.441 98.0018C355.021 94.853 353.194 90.2052 350.307 87.9567C349.782 87.5408 349.412 87.1752 348.764 86.9879C348.421 86.7639 348.12 86.6405 347.832 86.5811C346.74 85.8956 345.653 85.1964 344.539 84.5429C344.886 84.7439 345.229 84.9496 345.576 85.1553C340.054 81.6409 334.359 78.3869 328.869 74.8131C320.178 69.0183 312.104 62.4785 304.792 55.0201C301.663 51.8347 298.626 48.526 295.927 44.9659C295.26 44.0793 294.607 43.1927 293.981 42.2787C292.159 37.0779 290.419 31.3516 287.487 26.7038C287.259 26.4753 287.026 26.2331 286.797 26C286.35 29.6195 287.368 33.431 288.208 36.9317C290.296 45.6742 293.232 54.2066 296.274 62.6476C299.147 70.6361 302.371 78.6337 306.961 85.8179C310.793 91.8093 315.625 97.1015 320.69 102.065C326.362 107.617 331.97 113.252 338.195 118.197C345.909 124.339 354.016 129.81 362.876 134.147C362.488 133.964 362.109 133.772 361.725 133.585C362.214 133.781 362.666 134.055 363.059 134.403C365.548 136.253 365.589 132.136 365.571 130.929Z" fill="#FFC70F"/>
<path d="M416.617 194.591C414.557 190.057 411.347 185.917 408.241 182.078C404.222 177.101 399.842 172.353 395.083 168.066C392.854 165.986 390.461 164.131 387.895 162.495C387.059 162.111 386.232 161.727 385.41 161.348C378.445 161.01 371.595 163.208 364.593 162.851C358.546 162.545 352.618 161.384 346.882 159.47C343.562 158.181 340.292 156.737 337.172 155.041C336.419 154.625 335.665 154.209 334.921 153.784C334.807 153.707 334.688 153.638 334.578 153.565C333.902 153.122 333.258 152.646 332.592 152.189C332.509 152.107 332.423 152.029 332.336 151.947C329.911 149.744 327.522 147.45 324.951 145.421C320.53 141.939 315.684 137.547 310.181 135.815C310.5 135.924 310.816 136.03 311.135 136.135C310.747 135.865 310.327 135.7 309.861 135.604C309.952 135.961 310.121 136.272 310.272 136.605C310.254 136.587 310.236 136.573 310.222 136.555C310.249 136.605 310.281 136.651 310.313 136.701C310.478 137.049 310.674 137.382 310.912 137.693C313.478 142.24 316.333 146.6 319.534 150.718C321.525 153.122 323.517 155.53 325.513 157.929C325.919 158.409 326.339 158.88 326.759 159.351C328.942 161.782 331.066 164.268 333.409 166.549C339.232 172.234 345.174 177.489 351.787 182.233C358.145 186.799 365.036 190.962 372.316 193.869C379.258 196.643 386.506 199.051 393.983 199.782C401.212 200.486 408.46 199.17 415.672 198.813C417.065 199.152 417.668 198.612 417.48 197.191C417.193 196.323 416.909 195.45 416.617 194.591Z" fill="#FFA30F"/>
<path d="M449.135 228.437C446.65 224.132 443.074 220.311 439.631 216.774C435.169 212.19 430.369 207.867 425.254 204.023C422.49 201.944 418.64 198.772 415.028 198.192C414.366 198.087 413.872 197.941 413.206 198.096C412.813 198.064 412.484 198.101 412.205 198.187C410.917 198.11 409.625 198.027 408.328 197.995C408.734 198.005 409.132 198.018 409.538 198.027C403.007 197.625 396.467 197.534 389.945 197.059C379.532 196.186 369.293 194.367 359.277 191.369C355.002 190.089 350.746 188.663 346.658 186.849C345.649 186.401 344.649 185.94 343.658 185.441C339.556 181.762 335.268 177.595 330.454 174.944C330.144 174.848 329.819 174.752 329.509 174.661C330.865 178.047 333.605 180.88 336.031 183.549C342.064 190.185 348.768 196.236 355.505 202.159C361.88 207.762 368.562 213.205 376.057 217.277C382.291 220.668 389.087 222.971 395.924 224.858C403.56 226.983 411.191 229.205 419.029 230.53C428.752 232.166 438.489 233.048 448.34 232.564C447.911 232.582 447.486 232.6 447.066 232.623C447.591 232.554 448.112 232.582 448.633 232.692C451.693 233.112 449.738 229.483 449.135 228.437Z" fill="#FF970F"/>
<path d="M373.271 224.662C374.481 225.206 375.65 225.832 376.865 226.367C379.144 227.372 382.099 228.428 381.218 228.158C392.873 231.8 405.364 232.043 417.293 229.584C416.754 229.694 416.22 229.812 415.676 229.922C421.417 228.684 426.998 226.883 432.506 224.817C435.077 223.853 438.22 226.399 440.074 227.724C444.874 231.133 449.203 235.274 453.227 239.551C457.255 243.833 461.142 248.394 464.261 253.385C464.307 253.458 468.769 260.414 466.714 261.117C451.624 266.291 435.927 268.649 420.307 264.376C414.795 262.868 409.387 260.674 404.295 258.083C395.878 253.796 388.571 247.951 381.519 241.713C376.596 237.358 371.645 232.586 367.585 227.413C365.388 224.612 362.945 221.632 362.365 218.04C362.424 218.415 362.488 218.78 362.556 219.155C362.415 218.355 362.241 217.825 362.26 217.103C362.282 216.495 369.101 221.522 368.526 221.061C373.157 224.694 372.504 224.315 373.271 224.662Z" fill="#FF8B0F"/>
<path d="M404.259 267.781C405.565 268.037 406.848 268.37 408.159 268.603C410.602 269.06 413.722 269.412 412.804 269.344C424.993 270.194 437.196 267.534 448.24 262.393C447.737 262.626 447.244 262.859 446.746 263.096C452.049 260.551 457.068 257.512 461.941 254.235C464.225 252.699 467.865 254.459 469.975 255.309C475.432 257.512 480.598 260.551 485.507 263.777C490.412 267.008 495.249 270.55 499.437 274.691C499.496 274.75 505.443 280.49 503.602 281.642C490.125 290.165 475.396 296.097 459.21 295.544C453.496 295.347 447.724 294.47 442.179 293.126C432.999 290.905 424.536 286.902 416.229 282.46C410.438 279.366 404.528 275.865 399.376 271.77C396.59 269.558 393.526 267.223 392.137 263.86C392.284 264.207 392.425 264.55 392.585 264.902C392.261 264.161 391.964 263.681 391.813 262.968C391.704 262.374 399.495 265.692 398.828 265.386C404.158 267.84 403.441 267.621 404.259 267.781Z" fill="#FF7F0F"/>
<path d="M531.667 296.335C527.552 293.547 522.665 291.673 518.03 289.996C512.015 287.816 505.813 286.024 499.528 284.804C496.135 284.142 491.28 282.958 487.782 284.018C487.142 284.21 486.631 284.302 486.106 284.722C485.731 284.868 485.448 285.046 485.247 285.243C484.05 285.737 482.854 286.226 481.676 286.76C482.041 286.596 482.406 286.436 482.776 286.271C476.725 288.753 470.792 291.522 464.722 293.954C454.976 297.715 444.974 300.548 434.648 302.23C430.241 302.938 425.792 303.514 421.321 303.67C420.225 303.711 419.129 303.724 418.024 303.715C412.721 302.203 407.044 300.315 401.555 300.036C401.231 300.091 400.906 300.132 400.582 300.187C403.281 302.646 406.971 304.008 410.324 305.342C418.654 308.678 427.327 311.197 435.959 313.587C444.139 315.844 452.528 317.823 461.037 318.216C468.143 318.541 475.245 317.649 482.224 316.37C490.024 314.939 497.861 313.61 505.488 311.37C514.951 308.596 524.095 305.141 532.749 300.397C532.38 300.608 532 300.809 531.626 301.019C532.074 300.731 532.549 300.521 533.065 300.397C536.006 299.433 532.667 297.016 531.667 296.335Z" fill="#FF730F"/>
<path d="M454.387 331.063C455.684 330.807 456.999 330.633 458.297 330.363C460.74 329.856 463.754 329.011 462.882 329.299C474.482 325.496 484.799 318.431 493.089 309.506C492.714 309.912 492.34 310.314 491.97 310.721C495.92 306.37 499.432 301.672 502.712 296.787C504.251 294.511 508.288 294.758 510.567 294.758C516.445 294.744 522.382 295.617 528.141 296.75C533.905 297.893 539.71 299.355 545.149 301.608C545.231 301.645 552.9 304.712 551.63 306.485C542.354 319.455 530.941 330.496 515.737 336.094C510.375 338.064 504.694 339.417 499.053 340.262C489.705 341.67 480.365 341.14 470.998 340.162C464.467 339.476 457.675 338.466 451.359 336.615C447.943 335.605 444.225 334.609 441.672 332.013C441.946 332.283 442.207 332.539 442.485 332.808C441.905 332.246 441.444 331.913 441.047 331.309C440.709 330.807 449.181 330.935 448.445 330.903C454.309 331.159 453.56 331.227 454.387 331.063Z" fill="#FF670F"/>
<path d="M475.569 357.4C476.834 356.989 478.122 356.66 479.378 356.239C481.749 355.449 484.635 354.251 483.799 354.635C494.884 349.494 504.287 341.268 511.467 331.433C511.152 331.876 510.832 332.315 510.512 332.763C513.924 327.978 516.851 322.896 519.532 317.663C520.793 315.218 524.826 314.99 527.095 314.72C532.937 314.016 538.924 314.176 544.779 314.624C550.63 315.081 556.576 315.853 562.235 317.448C562.322 317.467 570.3 319.619 569.245 321.525C561.55 335.505 551.516 347.817 537.079 355.152C531.991 357.743 526.506 359.758 520.998 361.262C511.882 363.748 502.547 364.333 493.125 364.465C486.562 364.548 479.693 364.347 473.213 363.245C469.701 362.647 465.892 362.089 463.046 359.818C463.348 360.051 462.818 359.74 462.348 359.192C461.95 358.73 470.377 357.866 469.65 357.917C475.505 357.496 474.775 357.651 475.569 357.4Z" fill="#FF5B0F"/>
<path d="M581.942 326.977C576.868 326.538 571.648 327.215 566.747 327.946C560.376 328.887 554.073 330.231 548.008 332.091C544.738 333.096 539.924 334.33 537.518 336.812C537.075 337.278 536.691 337.58 536.472 338.174C536.234 338.466 536.093 338.74 536.02 339.006C535.271 339.965 534.517 340.92 533.805 341.903C534.028 341.601 534.252 341.295 534.471 340.994C530.676 345.829 527.146 350.842 523.282 355.641C517.02 363.25 510.028 370.196 502.109 376.316C498.729 378.934 495.235 381.453 491.495 383.623C490.572 384.167 489.631 384.688 488.677 385.186C483.301 386.347 477.401 387.375 472.546 389.66C472.299 389.848 472.048 390.04 471.802 390.232C475.483 391.045 479.401 390.483 483.005 390.067C491.997 389.025 500.812 387.161 509.539 385.195C517.811 383.331 526.086 381.133 533.594 377.563C539.86 374.588 545.455 370.58 550.712 366.316C556.604 361.554 562.573 356.861 567.866 351.505C574.434 344.86 580.339 337.79 585.125 329.884C584.915 330.222 584.705 330.565 584.495 330.907C584.719 330.459 585.015 330.071 585.39 329.728C587.372 327.567 583.175 327.091 581.942 326.977Z" fill="#FF4F0F"/>
<path d="M626.069 322.69C625.567 318.015 624.512 313.427 622.858 309.113C621.493 305.575 620.164 301.531 617.396 298.725C617.656 299.227 617.583 299.163 617.291 298.629C615.314 298.469 613.487 299.104 611.806 300.539C610.381 301.59 608.952 302.65 607.513 303.697C601.539 308.55 596.264 314.071 591.423 319.619C586.573 325.181 581.955 331.026 578.43 337.072C578.019 337.799 573.438 345.171 576.169 345.829C578.379 346.354 579.466 347.926 580.343 349.558C583.823 356.578 586.267 364.338 587.039 372.289C588.085 382.97 586.801 393.997 584.814 405.089C583.211 414.056 581.316 422.995 579.033 431.984C578.466 434.205 577.868 436.426 577.119 438.638C576.799 439.57 576.47 440.503 576.128 441.435C575.909 441.787 575.667 442.134 575.452 442.486C572.273 447.531 569.085 452.636 566.478 457.814C566.478 457.814 563.372 463.125 566.295 460.803C571.57 456.621 575.333 450.977 579.074 446.019C586.244 436.508 592.501 426.623 598.552 416.761C602.928 409.627 606.878 402.283 609.874 394.889C610.678 392.896 612.733 388.011 613.076 387.211C614.418 384.048 615.569 380.868 616.597 377.678C618.287 372.468 619.753 367.258 621.077 362.048C624.384 348.945 627.43 335.308 626.069 322.69Z" fill="#FF670F"/>
<path d="M710.392 237.965C710.565 238.249 710.739 238.546 710.908 238.829C709.286 236.041 706.181 234.437 703.363 232.902C698.133 230.064 692.26 227.884 686.524 226.042C678.321 223.405 670.014 221.184 661.195 220.672C655.87 220.361 650.375 220.503 645.018 221.253C629.805 223.373 616.597 231.06 604.805 240.877C604.704 240.968 604.709 241.1 604.668 241.215C600.183 245.008 595.99 249.381 592.131 253.778C585.819 260.98 579.877 268.457 575.493 277.108C573.146 281.751 571.136 286.664 569.606 291.678C567.957 288.556 565.984 285.508 563.591 283.794C559.111 280.572 554.64 277.318 550.086 274.202C511.563 247.937 472.993 221.86 438.315 190.514C437.964 190.194 435.534 187.959 435.383 187.836C434.671 187.173 433.958 186.511 433.246 185.843C431.232 183.942 429.218 182.041 427.24 180.108C423.276 176.246 419.357 172.334 415.539 168.322C407.524 159.917 399.682 151.271 392.183 142.391C388.223 137.716 384.351 132.963 380.633 128.078C379.994 127.241 379.363 126.405 378.733 125.555C378.55 125.303 378.381 125.08 378.267 124.91C376.696 122.708 375.221 120.432 373.75 118.156C372.618 116.41 371.512 114.641 370.407 112.882C370.119 112.384 369.772 111.785 369.412 111.168C365.575 102.055 367.799 107.823 367.553 107.183C364.086 98.3354 360.191 89.6202 355.751 81.2113C353.294 76.5498 350.44 70.3573 346.334 66.7743C342.767 63.6621 344.352 71.2667 344.402 71.6826C344.42 71.8151 344.43 71.8746 344.439 71.9888C344.434 73.698 344.53 75.4072 344.758 77.0982C345.192 79.9316 345.658 82.7697 346.302 85.5711C348.334 94.4874 351.061 102.965 353.957 111.639C358.674 125.783 365.466 139.366 372.371 152.546C384.963 176.616 400.879 200.034 419.248 220.046C435.63 237.897 453.551 254.358 472.272 269.709C491.184 285.211 510.777 299.991 530.722 314.281C530.617 314.281 530.557 314.281 530.557 314.281C530.557 314.281 530.822 314.405 531.242 314.651C533.256 316.091 535.275 317.526 537.294 318.956C543.925 324.646 552.338 335.601 547.319 352.103C545.642 355.344 544.012 358.607 542.432 361.851C541.719 363.309 541.039 364.795 540.354 366.266C540.08 366.705 539.966 366.952 539.979 367.038C538.152 370.941 536.371 374.862 534.695 378.834C529.589 385.218 523.469 390.771 516.454 395.039C514.746 395.976 513.02 396.863 511.243 397.649C510.028 398.188 508.786 398.641 507.553 399.162C506.786 399.486 507.503 399.267 501.707 400.245C502.433 400.117 494.126 401.767 494.559 402.192C495.08 402.694 495.601 402.927 496.281 403.357C495.961 403.151 495.642 402.955 495.331 402.749C498.364 404.746 502.209 404.952 505.762 405.212C512.316 405.697 519.171 405.263 525.693 404.554C523.323 412.296 521.569 420.266 520.286 428.237C519.998 430.042 519.724 431.847 519.446 433.661C514.54 440.375 509.311 446.823 503.452 452.819C498.441 457.947 493.198 462.869 487.709 467.484C484.936 469.82 482.123 472.096 479.246 474.298C477.935 475.299 476.62 476.296 475.286 477.269C474.574 477.785 473.866 478.306 473.144 478.814C473.085 478.855 473.057 478.869 472.998 478.91C467.02 483.05 460.877 486.953 454.547 490.513C451.405 492.291 448.226 494.046 444.979 495.641C443.225 496.5 441.458 497.336 439.686 498.15C439.06 498.433 438.43 498.721 437.804 499C437.713 499.041 437.676 499.059 437.562 499.105C431.141 501.829 424.6 504.283 417.928 506.353C417.257 506.545 416.572 506.742 415.886 506.924C414.375 507.34 412.858 507.72 411.342 508.117C409.835 508.501 408.328 508.885 406.812 509.237C406.3 509.351 405.77 509.474 405.254 509.589C400.08 510.617 394.736 511.636 389.936 513.889C388.708 514.47 384.556 516.65 387.671 518.281C391.311 520.191 396.828 519.899 400.705 519.853C407.862 519.762 414.923 518.889 421.97 517.742C445.289 513.949 468.171 506.408 489.517 495.938C487.727 497.674 485.955 499.439 484.114 501.125C480.849 504.114 477.538 507.061 474.131 509.89C473.423 510.484 472.715 511.074 472.002 511.659C470.427 512.902 468.837 514.136 467.244 515.352C464.06 517.746 460.781 520.022 457.474 522.252C456.634 522.801 455.753 523.372 455.287 523.665C453.574 524.739 451.871 525.799 450.135 526.827C449.4 527.266 448.665 527.691 447.929 528.125C446.23 529.057 444.527 529.976 442.81 530.872C442.631 530.963 442.462 531.045 442.289 531.141C440.8 531.845 439.307 532.553 437.809 533.239C437.589 533.339 437.37 533.435 437.155 533.527C435.918 534.043 434.666 534.537 433.415 535.026C429.588 536.072 425.756 537.101 421.915 538.065C420.645 538.38 419.376 538.7 418.106 538.997C417.732 539.057 417.321 539.134 416.859 539.249C409.328 540.542 401.82 544.184 395.097 547.484C389.233 550.354 383.405 553.521 378.112 557.351C377.879 557.515 377.637 557.703 377.404 557.876C377.144 558.045 376.879 558.182 376.623 558.352C375.559 559.065 370.275 562.017 370.476 564.197C370.677 566.45 393.686 560.915 397.367 559.96C429.848 551.483 460.831 536.676 489.202 518.514C487.7 520.804 486.151 523.07 484.562 525.314C483.854 526.274 482.954 527.49 482.534 528.056C481.31 529.661 480.086 531.242 478.826 532.814C478.287 533.499 477.739 534.167 477.195 534.834C475.935 536.296 474.67 537.75 473.377 539.18C473.281 539.285 473.181 539.395 473.089 539.505C471.907 540.72 470.724 541.945 469.527 543.151C469.344 543.33 469.162 543.512 468.984 543.691C468.02 544.586 467.043 545.468 466.061 546.346C462.841 548.677 459.607 550.994 456.342 553.251C455.255 553.996 454.168 554.741 453.076 555.472C452.757 555.655 452.419 555.861 452.04 556.121C445.431 559.983 439.672 566.034 434.52 571.486C430.04 576.23 425.701 581.239 422.079 586.691C421.915 586.928 421.751 587.193 421.586 587.445C421.413 587.687 421.212 587.911 421.038 588.153C420.289 589.195 416.375 593.806 417.33 595.776C418.316 597.81 437.914 584.561 441.024 582.358C474.674 558.644 502.885 526.832 525.643 492.716C525.926 492.286 526.205 491.857 526.483 491.427C546.405 474.961 564.422 456.032 578.457 434.402C581.937 430.951 584.518 427.921 585.084 426.052C594.693 394.505 595.835 379.629 593.414 367.057C595.031 366.293 596.744 365.818 598.575 366.175C601.722 366.773 603.229 357.112 603.412 356.18C603.85 353.79 604.156 351.372 604.389 348.95C607.586 346.409 610.66 343.694 613.382 340.655C613.857 340.13 618.899 334.833 617.154 333.151C615.729 331.785 615.346 329.87 615.135 327.969C614.428 319.912 614.633 311.539 616.049 303.624C617.953 293.012 621.603 282.944 625.745 273.096C626.786 270.632 627.882 268.206 628.96 265.765C631.764 265.893 634.747 265.518 637.706 264.426C641.049 263.188 643.867 261.277 646.018 259.011C646.174 258.915 646.343 258.832 646.489 258.709C650.572 255.117 654.819 251.73 659.341 248.687C668.539 242.855 678.847 238.825 689.493 237.449C691.475 237.275 693.448 237.138 695.43 237.143C696.677 237.152 697.919 237.239 699.156 237.257C699.942 237.266 699.252 237.188 704.486 238.527C703.829 238.354 711.456 240.072 711.278 239.56C711.09 238.962 710.766 238.578 710.392 237.965ZM380.085 127.41C380.167 127.525 380.153 127.502 380.085 127.41V127.41ZM418.914 538.906C418.704 538.915 418.439 538.952 418.175 538.993C420.399 538.435 419.905 538.709 418.914 538.906ZM448.866 527.622C451.4 526.164 450.085 526.937 448.866 527.622V527.622ZM472.126 511.586C475.551 508.789 472.975 510.905 472.126 511.586V511.586ZM453.816 555.102C453.624 555.185 453.391 555.317 453.154 555.44C455.049 554.133 454.675 554.572 453.816 555.102ZM477.702 534.267C480.018 531.466 478.675 533.116 477.702 534.267V534.267Z" fill="#FF430F"/>
<path d="M679.792 389.907H694.699V500.257H679.792V389.907ZM725.171 320.122H740.078V470.862C740.078 485.34 746.65 487.533 752.354 487.533C754.336 487.533 756.081 487.31 756.081 487.31V500.691C756.081 500.691 753.45 501.129 750.605 501.129C741.388 501.129 725.175 498.282 725.175 474.148V320.122H725.171ZM774.925 320.122H789.832V470.862C789.832 485.34 796.413 487.533 802.113 487.533C804.086 487.533 805.839 487.31 805.839 487.31V500.691C805.839 500.691 803.209 501.129 800.354 501.129C791.147 501.129 774.925 498.282 774.925 474.148V320.122ZM824.254 389.907H839.161V456.164C839.161 473.499 841.792 488.85 863.056 488.85C888.271 488.85 903.84 466.694 903.84 442.783V389.907H918.747V500.257H904.279V483.804C904.279 478.974 904.717 475.03 904.717 475.03H904.279C899.89 485.779 885.421 502.889 861.088 502.889C835.22 502.889 824.259 488.85 824.259 460.108V389.907H824.254ZM948.109 389.907H962.802V406.369C962.802 411.19 962.363 415.143 962.363 415.143H962.802C968.063 400.226 985.601 387.275 1002.7 387.275C1023.09 387.275 1033.62 396.708 1036.9 414.919H1037.34C1043.26 400.003 1059.26 387.275 1077.9 387.275C1104.65 387.275 1114.52 402.85 1114.52 430.055V500.257H1099.61V433.785C1099.61 415.797 1095.88 400.875 1075.71 400.875C1058.83 400.875 1045.02 415.801 1040.85 432.025C1039.32 436.856 1038.87 442.12 1038.87 448.048V500.257H1023.96V433.785C1023.96 417.113 1021.56 400.875 1000.73 400.875C982.742 400.875 969.159 416.45 964.546 433.346C963.459 437.953 963.012 442.993 963.012 448.048V500.257H948.105V389.907H948.109ZM1194.73 387.275C1226.96 387.275 1253.05 411.848 1253.05 444.534C1253.05 477.881 1226.96 502.894 1194.73 502.894C1162.5 502.894 1136.41 477.881 1136.41 444.534C1136.42 411.848 1162.51 387.275 1194.73 387.275ZM1194.73 489.512C1218.42 489.512 1237.7 470.204 1237.7 444.534C1237.7 419.521 1218.41 400.875 1194.73 400.875C1171.06 400.875 1151.77 419.521 1151.77 444.534C1151.77 470.204 1171.06 489.512 1194.73 489.512ZM1275.62 476.131C1275.62 476.131 1287.9 489.512 1308.51 489.512C1320.35 489.512 1330.65 483.585 1330.65 471.963C1330.65 447.829 1271.23 453.756 1271.23 417.776C1271.23 398.033 1288.99 387.275 1308.95 387.275C1332.18 387.275 1342.92 399.344 1342.92 399.344L1336.14 410.751C1336.14 410.751 1326.71 400.665 1308.51 400.665C1297.32 400.665 1286.58 405.487 1286.58 417.776C1286.58 442.125 1346 435.549 1346 471.963C1346 489.951 1330.44 502.894 1308.28 502.894C1281.54 502.894 1267.51 486.88 1267.51 486.88L1275.62 476.131ZM687.241 341.789C680.888 341.789 675.732 346.948 675.732 353.305C675.732 359.672 680.888 364.827 687.241 364.827C693.603 364.827 698.755 359.667 698.755 353.305C698.759 346.948 693.603 341.789 687.241 341.789Z" fill="#E2E0E3"/>
<path d="M310.064 955V939.736H322.16C325.04 939.736 327.536 939.352 329.648 938.584C331.952 937.624 333.68 935.8 334.832 933.112C336.176 930.424 336.848 926.392 336.848 921.016V782.2C336.848 777.016 336.176 773.176 334.832 770.68C333.488 768.184 331.664 766.552 329.36 765.784C327.248 765.016 324.848 764.632 322.16 764.632H310.064V749.368H405.104C426.416 749.368 444.656 753.112 459.824 760.6C474.992 767.896 486.608 778.936 494.672 793.72C502.928 808.312 507.056 826.552 507.056 848.44C507.056 869.368 503.216 887.896 495.536 904.024C487.856 919.96 476.432 932.44 461.264 941.464C446.288 950.488 427.568 955 405.104 955H310.064ZM398.48 937.144C411.728 937.144 422.768 933.592 431.6 926.488C440.432 919.384 447.056 909.208 451.472 895.96C456.08 882.52 458.384 866.584 458.384 848.152C458.384 829.912 456.08 814.84 451.472 802.936C447.056 790.84 440.432 781.816 431.6 775.864C422.768 769.912 411.824 766.936 398.768 766.936H382.352V937.144H398.48ZM610.909 957.88C586.525 957.88 567.997 950.968 555.325 937.144C542.653 923.128 536.317 903.64 536.317 878.68C536.317 851.608 542.557 831.256 555.037 817.624C567.517 803.8 585.085 796.888 607.741 796.888C628.669 796.888 645.085 802.744 656.989 814.456C669.085 826.168 675.133 843.448 675.133 866.296V880.984H580.669C581.053 893.848 582.781 904.408 585.853 912.664C588.925 920.728 593.245 926.68 598.813 930.52C604.573 934.36 611.389 936.28 619.261 936.28C625.981 936.28 631.933 935.32 637.117 933.4C642.493 931.288 647.101 928.504 650.941 925.048C654.781 921.4 657.757 917.368 659.869 912.952C662.557 914.296 664.477 916.216 665.629 918.712C666.973 921.016 667.645 923.8 667.645 927.064C667.645 932.44 665.629 937.528 661.597 942.328C657.565 946.936 651.325 950.68 642.877 953.56C634.621 956.44 623.965 957.88 610.909 957.88ZM631.069 862.552C631.069 852.76 630.301 844.408 628.765 837.496C627.229 830.392 624.829 825.016 621.565 821.368C618.301 817.528 613.885 815.608 608.317 815.608C602.941 815.608 598.237 817.432 594.205 821.08C590.365 824.536 587.293 829.816 584.989 836.92C582.877 843.832 581.629 852.376 581.245 862.552H631.069ZM753.841 957.88C740.017 957.88 728.785 956.44 720.145 953.56C711.697 950.488 705.553 946.456 701.713 941.464C697.873 936.28 695.953 930.52 695.953 924.184C695.953 917.848 697.489 913.144 700.561 910.072C703.633 907 707.281 904.984 711.505 904.024C715.729 902.872 719.473 902.296 722.737 902.296C722.737 910.168 723.985 917.08 726.481 923.032C729.169 928.792 732.817 933.208 737.425 936.28C742.225 939.352 747.697 940.888 753.841 940.888C763.825 940.888 771.025 938.968 775.441 935.128C780.049 931.288 782.353 926.68 782.353 921.304C782.353 917.08 781.297 913.432 779.185 910.36C777.073 907.096 773.425 904.12 768.241 901.432C763.057 898.552 755.953 895.576 746.929 892.504C736.561 888.856 727.825 884.92 720.721 880.696C713.617 876.28 708.145 871.096 704.305 865.144C700.657 859 698.833 851.608 698.833 842.968C698.833 827.608 704.497 816.184 715.825 808.696C727.153 801.016 742.129 797.176 760.753 797.176C772.849 797.176 782.545 798.52 789.841 801.208C797.329 803.704 802.705 807.064 805.969 811.288C809.425 815.32 811.153 819.544 811.153 823.96C811.153 830.488 808.849 835.48 804.241 838.936C799.825 842.2 792.337 843.832 781.777 843.832C781.777 834.232 779.665 826.84 775.441 821.656C771.217 816.28 764.881 813.592 756.433 813.592C752.401 813.592 748.561 814.264 744.913 815.608C741.457 816.952 738.577 818.968 736.273 821.656C734.161 824.152 733.105 827.416 733.105 831.448C733.105 835.48 734.161 839.032 736.273 842.104C738.577 845.176 742.609 848.152 748.369 851.032C754.129 853.912 762.193 857.176 772.561 860.824C781.201 863.704 788.785 867.256 795.313 871.48C801.841 875.512 806.929 880.504 810.577 886.456C814.417 892.216 816.337 899.128 816.337 907.192C816.337 923.128 810.865 935.608 799.921 944.632C789.169 953.464 773.809 957.88 753.841 957.88ZM832.834 955V939.736H836.29C839.17 939.736 842.146 939.352 845.218 938.584C848.482 937.624 851.17 935.8 853.282 933.112C855.586 930.424 856.738 926.392 856.738 921.016V768.952C856.738 763.768 855.586 759.928 853.282 757.432C850.978 754.936 848.194 753.304 844.93 752.536C841.858 751.768 838.978 751.384 836.29 751.384H832.834V736.12H900.514V847.288C900.514 849.784 900.418 852.76 900.226 856.216C900.034 859.672 899.842 863.032 899.65 866.296C899.65 869.368 899.554 871.96 899.362 874.072C899.17 876.184 899.074 877.24 899.074 877.24L935.362 836.632C937.474 834.136 939.106 832.12 940.258 830.584C941.41 828.856 942.178 827.416 942.562 826.264C942.946 824.92 943.138 823.768 943.138 822.808C943.138 820.312 941.794 818.392 939.106 817.048C936.61 815.704 932.962 815.032 928.162 815.032V800.632H1000.74V815.032C997.474 815.032 994.21 815.512 990.946 816.472C987.682 817.432 984.418 818.968 981.154 821.08C977.89 823 974.53 825.496 971.074 828.568C967.618 831.64 963.97 835.288 960.13 839.512L941.986 860.248L980.29 917.272C983.746 922.264 987.106 926.488 990.37 929.944C993.826 933.208 997.186 935.704 1000.45 937.432C1003.91 938.968 1007.17 939.736 1010.24 939.736H1011.11V955H1007.07C996.514 955 987.586 954.808 980.29 954.424C973.186 953.848 967.138 952.792 962.146 951.256C957.154 949.528 952.738 946.936 948.898 943.48C945.25 940.024 941.506 935.32 937.666 929.368L912.034 889.048L900.514 897.688V921.016C900.514 926.392 901.57 930.424 903.682 933.112C905.986 935.8 908.77 937.624 912.034 938.584C915.298 939.352 918.274 939.736 920.962 939.736H924.418V955H832.834ZM1081.02 957.88C1068.15 957.88 1057.88 954.52 1050.2 947.8C1042.52 941.08 1038.68 929.272 1038.68 912.376V820.216H1017.08V805.528C1023.22 805.528 1028.7 804.28 1033.5 801.784C1038.49 799.288 1042.42 796.504 1045.3 793.432C1048.18 790.36 1050.78 786.52 1053.08 781.912C1055.38 777.112 1057.21 771.448 1058.55 764.92H1082.46V800.632H1119.32V820.216H1082.46V909.496C1082.46 918.136 1083.9 924.472 1086.78 928.504C1089.85 932.536 1094.74 934.552 1101.46 934.552C1105.3 934.552 1108.86 934.36 1112.12 933.976C1115.58 933.4 1118.84 932.728 1121.91 931.96V950.68C1118.84 952.024 1113.75 953.56 1106.65 955.288C1099.74 957.016 1091.19 957.88 1081.02 957.88ZM1215.59 957.88C1192.55 957.88 1174.41 951.256 1161.16 938.008C1147.91 924.568 1141.29 904.312 1141.29 877.24C1141.29 850.168 1147.62 830.008 1160.29 816.76C1172.97 803.512 1191.69 796.888 1216.45 796.888C1239.49 796.888 1257.64 803.512 1270.89 816.76C1284.13 830.008 1290.76 850.168 1290.76 877.24C1290.76 904.312 1284.33 924.568 1271.46 938.008C1258.79 951.256 1240.17 957.88 1215.59 957.88ZM1216.17 939.736C1223.65 939.736 1229.51 937.432 1233.73 932.824C1238.15 928.024 1241.32 921.016 1243.24 911.8C1245.16 902.392 1246.12 890.872 1246.12 877.24C1246.12 863.416 1245.16 851.992 1243.24 842.968C1241.32 833.752 1238.15 826.84 1233.73 822.232C1229.32 817.624 1223.46 815.32 1216.17 815.32C1208.68 815.32 1202.73 817.624 1198.31 822.232C1193.89 826.84 1190.73 833.752 1188.81 842.968C1186.89 851.992 1185.93 863.416 1185.93 877.24C1185.93 890.872 1186.89 902.392 1188.81 911.8C1190.73 921.016 1193.89 928.024 1198.31 932.824C1202.92 937.432 1208.87 939.736 1216.17 939.736ZM1308.12 1024.12V1008.86H1311.58C1314.46 1008.86 1317.43 1008.38 1320.5 1007.42C1323.77 1006.65 1326.46 1004.92 1328.57 1002.23C1330.87 999.544 1332.02 995.512 1332.02 990.136V836.056C1332.02 830.104 1331.16 825.784 1329.43 823.096C1327.7 820.216 1325.4 818.296 1322.52 817.336C1319.64 816.376 1316.38 815.896 1312.73 815.896H1310.71V800.632H1367.16L1372.34 823.096H1373.5C1377.72 815.608 1383.29 809.56 1390.2 804.952C1397.3 800.152 1406.42 797.752 1417.56 797.752C1436.76 797.752 1451.35 804.184 1461.34 817.048C1471.51 829.912 1476.6 850.36 1476.6 878.392C1476.6 906.232 1471.61 926.584 1461.62 939.448C1451.83 952.12 1437.53 958.456 1418.71 958.456C1407.77 958.456 1398.84 956.44 1391.93 952.408C1385.21 948.184 1379.74 942.52 1375.51 935.416H1373.5C1373.88 938.104 1374.26 941.752 1374.65 946.36C1375.03 950.776 1375.32 955.096 1375.51 959.32C1375.7 963.736 1375.8 967.384 1375.8 970.264V990.136C1375.8 995.512 1376.86 999.544 1378.97 1002.23C1381.27 1004.92 1384.06 1006.65 1387.32 1007.42C1390.58 1008.38 1393.56 1008.86 1396.25 1008.86H1402.58V1024.12H1308.12ZM1405.18 937.144C1411.7 937.144 1416.89 935.032 1420.73 930.808C1424.76 926.392 1427.64 919.864 1429.37 911.224C1431.29 902.584 1432.25 891.736 1432.25 878.68C1432.25 865.816 1431.29 855.064 1429.37 846.424C1427.64 837.592 1424.76 830.872 1420.73 826.264C1416.89 821.656 1411.8 819.352 1405.46 819.352C1397.78 819.352 1391.74 821.656 1387.32 826.264C1383.1 830.68 1380.12 837.304 1378.39 846.136C1376.66 854.968 1375.8 865.72 1375.8 878.392C1375.8 891.64 1376.66 902.68 1378.39 911.512C1380.12 920.152 1383.1 926.584 1387.32 930.808C1391.74 935.032 1397.69 937.144 1405.18 937.144Z" fill="#F728AF"/>
<path d="M735.037 705.939L735.013 699.46L736.309 699.455C738.325 699.447 740.148 699.201 741.779 698.715C743.505 698.228 744.893 697.263 745.944 695.819C747.091 694.375 747.659 692.213 747.648 689.333L747.357 610.565C747.346 607.589 746.81 605.431 745.75 604.091C744.688 602.655 743.293 601.748 741.563 601.371C739.93 600.897 738.105 600.663 736.089 600.671L734.361 600.677L734.337 594.197L760.401 594.101L762.175 606.623L762.751 606.621C764.943 602.388 767.763 599.018 771.21 596.509C774.656 593.905 779.163 592.592 784.731 592.571C794.331 592.536 801.639 595.725 806.655 602.139C811.766 608.456 814.347 618.574 814.399 632.494C814.45 646.414 811.944 656.599 806.879 663.05C801.911 669.501 794.723 672.743 785.315 672.778C779.747 672.798 775.183 671.663 771.622 669.372C768.158 667.081 765.363 664.115 763.238 660.475L762.662 660.477C762.86 662.109 762.963 663.98 762.97 666.092C763.074 668.204 763.178 670.219 763.281 672.139C763.384 674.059 763.438 675.691 763.443 677.035L763.49 689.85C763.5 692.538 764.035 694.552 765.096 695.893C766.254 697.328 767.697 698.235 769.426 698.613C771.156 699.086 772.981 699.319 774.901 699.312L776.053 699.308L776.077 705.788L735.037 705.939ZM781.68 663.143C785.616 663.129 788.779 661.965 791.171 659.652C793.658 657.243 795.421 653.78 796.46 649.265C797.596 644.748 798.151 639.13 798.126 632.41C798.102 625.69 797.505 620.124 796.337 615.713C795.264 611.205 793.476 607.851 790.972 605.652C788.563 603.357 785.391 602.217 781.455 602.232C776.751 602.249 773.059 603.367 770.379 605.584C767.795 607.802 765.936 611.169 764.8 615.685C763.761 620.201 763.254 625.867 763.279 632.683C763.304 639.307 763.852 644.873 764.925 649.381C766.093 653.889 768.026 657.337 770.723 659.728C773.419 662.022 777.072 663.16 781.68 663.143ZM851.561 672.389C847.337 672.405 843.494 671.603 840.032 669.984C836.666 668.268 834.016 665.734 832.084 662.381C830.151 658.932 829.175 654.568 829.156 649.288C829.127 641.608 831.794 635.934 837.157 632.266C842.519 628.502 850.719 626.408 861.758 625.983L873.564 625.508L873.533 617.156C873.521 613.7 873.221 610.677 872.636 608.087C872.146 605.497 871.035 603.485 869.302 602.051C867.568 600.522 864.925 599.764 861.373 599.777C858.013 599.789 855.424 600.471 853.605 601.821C851.882 603.172 850.688 605.048 850.025 607.451C849.458 609.757 849.18 612.446 849.191 615.518C844.583 615.535 841.077 614.876 838.672 613.541C836.266 612.109 835.058 609.714 835.045 606.354C835.032 602.898 836.222 600.158 838.615 598.133C841.103 596.107 844.362 594.607 848.39 593.633C852.515 592.657 857.025 592.161 861.921 592.143C871.041 592.109 877.864 593.956 882.39 597.683C887.011 601.41 889.339 607.786 889.372 616.81L889.509 653.961C889.519 656.649 889.815 658.76 890.397 660.294C890.978 661.732 891.942 662.784 893.288 663.451C894.634 664.022 896.363 664.304 898.475 664.296L898.907 664.295L898.931 670.775L877.475 670.854L874.984 659.199L873.688 659.204C871.682 661.803 869.723 664.114 867.81 666.137C865.897 668.065 863.695 669.609 861.203 670.77C858.711 671.835 855.497 672.375 851.561 672.389ZM856.134 663.012C859.782 662.999 862.899 662.22 865.486 660.674C868.072 659.032 870.079 656.721 871.508 653.74C872.937 650.758 873.645 647.3 873.63 643.364L873.588 631.988L865.094 632.451C860.102 632.662 856.169 633.492 853.295 634.943C850.42 636.297 848.363 638.225 847.124 640.726C845.981 643.226 845.417 646.3 845.43 649.948C845.441 652.828 845.834 655.274 846.609 657.288C847.384 659.205 848.542 660.64 850.081 661.595C851.717 662.549 853.734 663.021 856.134 663.012ZM908.902 670.738L908.878 664.258L909.31 664.256C911.518 664.248 913.485 664.001 915.211 663.515C917.034 663.028 918.422 662.063 919.377 660.619C920.427 659.079 920.947 656.821 920.936 653.845L920.773 609.782C920.763 606.902 920.227 604.792 919.166 603.452C918.105 602.015 916.709 601.109 914.98 600.731C913.346 600.257 911.473 600.024 909.361 600.032L908.929 600.033L908.905 593.553L932.953 593.465L935.739 606.846L936.459 606.844C937.696 603.959 939.031 601.41 940.462 599.197C941.99 596.887 943.951 595.104 946.347 593.847C948.838 592.494 952.147 591.81 956.275 591.795C961.651 591.775 965.639 592.72 968.238 594.63C970.837 596.541 972.143 599.224 972.155 602.68C972.168 606.04 970.978 608.78 968.586 610.901C966.289 612.926 962.597 613.947 957.509 613.966C957.499 611.278 957.251 609.119 956.765 607.489C956.279 605.763 955.506 604.518 954.447 603.753C953.388 602.893 951.899 602.467 949.979 602.474C947.387 602.483 945.182 603.5 943.366 605.522C941.645 607.545 940.311 610.094 939.362 613.169C938.413 616.245 937.705 619.415 937.237 622.681C936.865 625.946 936.684 628.827 936.693 631.323L936.778 654.507C936.789 657.291 937.324 659.401 938.386 660.837C939.447 662.177 940.794 663.084 942.428 663.558C944.157 663.936 946.078 664.121 948.19 664.113L952.366 664.098L952.39 670.577L908.902 670.738ZM1001.18 671.837C996.961 671.853 993.118 671.051 989.656 669.432C986.29 667.716 983.64 665.182 981.708 661.829C979.775 658.38 978.799 654.016 978.78 648.736C978.751 641.056 981.418 635.382 986.781 631.714C992.143 627.951 1000.34 625.856 1011.38 625.432L1023.19 624.956L1023.16 616.604C1023.14 613.148 1022.85 610.125 1022.26 607.535C1021.77 604.945 1020.66 602.933 1018.93 601.5C1017.19 599.97 1014.55 599.212 1011 599.225C1007.64 599.237 1005.05 599.919 1003.23 601.269C1001.51 602.62 1000.31 604.496 999.649 606.899C999.082 609.205 998.804 611.894 998.815 614.966C994.207 614.983 990.701 614.324 988.296 612.989C985.89 611.557 984.682 609.162 984.669 605.802C984.656 602.346 985.846 599.606 988.239 597.581C990.727 595.556 993.986 594.056 998.014 593.081C1002.14 592.105 1006.65 591.609 1011.54 591.591C1020.66 591.557 1027.49 593.404 1032.01 597.131C1036.64 600.858 1038.96 607.234 1039 616.258L1039.13 653.409C1039.14 656.097 1039.44 658.208 1040.02 659.742C1040.6 661.18 1041.57 662.232 1042.91 662.899C1044.26 663.471 1045.99 663.752 1048.1 663.744L1048.53 663.743L1048.56 670.223L1027.1 670.302L1024.61 658.647L1023.31 658.652C1021.31 661.251 1019.35 663.562 1017.43 665.585C1015.52 667.513 1013.32 669.057 1010.83 670.218C1008.33 671.283 1005.12 671.823 1001.18 671.837ZM1005.76 662.461C1009.41 662.447 1012.52 661.668 1015.11 660.122C1017.7 658.48 1019.7 656.169 1021.13 653.188C1022.56 650.206 1023.27 646.748 1023.25 642.812L1023.21 631.436L1014.72 631.899C1009.73 632.11 1005.79 632.94 1002.92 634.391C1000.04 635.745 997.987 637.673 996.748 640.174C995.605 642.674 995.041 645.748 995.054 649.396C995.065 652.276 995.458 654.722 996.233 656.736C997.008 658.653 998.166 660.089 999.705 661.043C1001.34 661.997 1003.36 662.469 1005.76 662.461Z" fill="white"/>
</g>
<defs>
<clipPath id="clip0_4_3">
<rect width="1792" height="1193" fill="white"/>
</clipPath>
</defs>
</svg>
