<svg width="713" height="658" viewBox="0 0 713 658" fill="none" xmlns="http://www.w3.org/2000/svg">
<g clip-path="url(#clip0_11_7)">
<path d="M241.137 431V415.1H242.937C247.737 415.1 251.837 414.3 255.237 412.7C258.637 410.9 261.837 408.4 264.837 405.2C267.837 402 270.937 398.3 274.137 394.1L326.637 325.7L277.137 248.6C274.937 245 272.737 242.1 270.537 239.9C268.337 237.5 265.737 235.7 262.737 234.5C259.737 233.3 255.937 232.7 251.337 232.7H247.437V216.8H346.737V232.7H345.837C339.037 232.7 334.337 233.6 331.737 235.4C329.337 237 328.137 239 328.137 241.4C328.137 243.4 328.837 246 330.237 249.2C331.837 252.4 333.737 255.7 335.937 259.1L360.837 296.3L386.937 259.7C388.737 256.9 390.537 253.8 392.337 250.4C394.137 247 395.037 244 395.037 241.4C395.037 237.8 393.337 235.5 389.937 234.5C386.737 233.3 382.837 232.7 378.237 232.7H377.337V216.8H447.537V232.7H444.837C441.037 232.7 437.537 233.4 434.337 234.8C431.337 236.2 428.337 238.5 425.337 241.7C422.537 244.7 419.137 248.9 415.137 254.3L371.637 313.7L426.837 399.2C429.437 403.2 432.037 406.4 434.637 408.8C437.437 411.2 440.237 412.9 443.037 413.9C445.837 414.7 448.437 415.1 450.837 415.1H454.737V431H355.737V415.1H357.237C363.237 415.1 367.737 414.3 370.737 412.7C373.737 410.9 375.237 408.4 375.237 405.2C375.237 403 374.637 400.6 373.437 398C372.437 395.4 369.737 390.9 365.337 384.5L337.737 342.8L305.337 386.6C304.137 388.2 302.937 390.1 301.737 392.3C300.537 394.3 299.537 396.4 298.737 398.6C297.937 400.6 297.537 402.7 297.537 404.9C297.537 408.1 298.937 410.6 301.737 412.4C304.537 414.2 309.237 415.1 315.837 415.1H316.737V431H241.137Z" fill="#F728AF"/>
<g clip-path="url(#clip1_11_7)">
<path fill-rule="evenodd" clip-rule="evenodd" d="M155.675 255.7C154.837 254.859 153.84 254.191 152.743 253.736C151.645 253.281 150.469 253.046 149.281 253.046C148.093 253.046 146.917 253.281 145.82 253.736C144.723 254.191 143.726 254.859 142.887 255.7L70.6372 327.95C68.9414 329.645 67.9886 331.945 67.9886 334.344C67.9886 336.742 68.9414 339.042 70.6372 340.738C72.333 342.434 74.633 343.386 77.0313 343.386C79.4296 343.386 81.7296 342.434 83.4254 340.738L140.25 283.895V460.781C140.25 472.757 145.008 484.243 153.476 492.712C161.944 501.18 173.43 505.937 185.406 505.937H329.906C332.302 505.937 334.599 504.986 336.292 503.292C337.986 501.599 338.938 499.301 338.938 496.906C338.938 494.511 337.986 492.214 336.292 490.52C334.599 488.826 332.302 487.875 329.906 487.875H185.406C178.221 487.875 171.329 485.02 166.248 479.939C161.167 474.858 158.313 467.967 158.313 460.781V283.895L215.137 340.738C215.977 341.578 216.974 342.244 218.071 342.698C219.168 343.153 220.344 343.386 221.531 343.386C222.719 343.386 223.895 343.153 224.992 342.698C226.089 342.244 227.086 341.578 227.925 340.738C228.765 339.898 229.431 338.901 229.886 337.804C230.34 336.707 230.574 335.531 230.574 334.344C230.574 333.156 230.34 331.98 229.886 330.883C229.431 329.786 228.765 328.789 227.925 327.95L155.675 255.7V255.7Z" fill="white"/>
</g>
<g clip-path="url(#clip2_11_7)">
<path fill-rule="evenodd" clip-rule="evenodd" d="M540.325 386.3C541.163 387.141 542.16 387.809 543.257 388.264C544.355 388.719 545.531 388.954 546.719 388.954C547.907 388.954 549.083 388.719 550.18 388.264C551.277 387.809 552.274 387.141 553.113 386.3L625.363 314.05C627.059 312.355 628.011 310.054 628.011 307.656C628.011 305.258 627.059 302.958 625.363 301.262C623.667 299.566 621.367 298.614 618.969 298.614C616.57 298.614 614.27 299.566 612.575 301.262L555.75 358.105V181.219C555.75 169.243 550.992 157.757 542.524 149.288C534.056 140.82 522.57 136.062 510.594 136.062L366.094 136.062C363.698 136.062 361.401 137.014 359.708 138.708C358.014 140.401 357.062 142.698 357.062 145.094C357.062 147.489 358.014 149.786 359.708 151.48C361.401 153.173 363.698 154.125 366.094 154.125L510.594 154.125C517.779 154.125 524.671 156.979 529.752 162.061C534.833 167.142 537.687 174.033 537.687 181.219V358.105L480.863 301.262C480.023 300.422 479.026 299.756 477.929 299.302C476.832 298.847 475.656 298.614 474.469 298.614C473.281 298.614 472.105 298.847 471.008 299.302C469.911 299.756 468.914 300.422 468.075 301.262C467.235 302.102 466.569 303.099 466.114 304.196C465.66 305.293 465.426 306.469 465.426 307.656C465.426 308.844 465.66 310.02 466.114 311.117C466.569 312.214 467.235 313.211 468.075 314.05L540.325 386.3V386.3Z" fill="white"/>
</g>
</g>
<defs>
<clipPath id="clip0_11_7">
<rect width="713" height="658" fill="white"/>
</clipPath>
<clipPath id="clip1_11_7">
<rect width="289" height="289" fill="white" transform="translate(68 235)"/>
</clipPath>
<clipPath id="clip2_11_7">
<rect width="289" height="289" fill="white" transform="translate(628 407) rotate(180)"/>
</clipPath>
</defs>
</svg>
