<svg width="713" height="658" viewBox="0 0 713 658" fill="none" xmlns="http://www.w3.org/2000/svg">
<g clip-path="url(#clip0_9_3)">
<g clip-path="url(#clip1_9_3)">
<path d="M487.29 232.694L655.46 186.642C657.492 186.086 659.64 186.121 661.653 186.742C663.666 187.363 665.46 188.545 666.826 190.149C668.191 191.753 669.072 193.713 669.363 195.799C669.655 197.885 669.347 200.011 668.474 201.928L612.03 325.891C611.356 327.369 610.365 328.681 609.128 329.734C607.891 330.787 606.438 331.555 604.871 331.984C603.304 332.413 601.662 332.493 600.061 332.217C598.46 331.941 596.939 331.317 595.606 330.388L483.88 252.478C482.153 251.273 480.804 249.601 479.992 247.657C479.181 245.713 478.939 243.578 479.297 241.502C479.655 239.426 480.597 237.495 482.012 235.936C483.428 234.376 485.259 233.251 487.29 232.694V232.694ZM40.2488 447.067L208.419 401.015C210.45 400.458 212.281 399.334 213.697 397.774C215.112 396.214 216.054 394.283 216.412 392.207C216.77 390.131 216.529 387.996 215.717 386.052C214.905 384.108 213.556 382.436 211.829 381.231L100.103 303.321C98.7698 302.392 97.249 301.768 95.6481 301.492C94.0471 301.216 92.4051 301.296 90.8383 301.725C89.2714 302.154 87.818 302.922 86.5809 303.975C85.3438 305.028 84.3532 306.34 83.6793 307.818L27.235 431.781C26.3622 433.698 26.0537 435.824 26.3456 437.91C26.6375 439.996 27.5178 441.956 28.8833 443.56C30.2488 445.164 32.043 446.346 34.0558 446.967C36.0687 447.588 38.2169 447.623 40.2488 447.067V447.067Z" fill="white"/>
<path fill-rule="evenodd" clip-rule="evenodd" d="M289.294 103.006C222.915 121.184 171.831 167.678 145.624 225.936C144.494 228.685 142.823 231.179 140.71 233.27C138.597 235.361 136.085 237.005 133.324 238.106C130.563 239.206 127.608 239.74 124.636 239.676C121.665 239.612 118.736 238.951 116.025 237.732C113.314 236.513 110.875 234.762 108.854 232.582C106.834 230.402 105.272 227.838 104.262 225.042C103.252 222.246 102.815 219.276 102.976 216.308C103.137 213.34 103.893 210.434 105.2 207.764C126.133 161.275 159.978 121.776 202.71 93.9653C245.443 66.155 295.264 51.2037 346.248 50.8898C397.232 50.5759 447.234 64.9124 490.305 92.1944C533.377 119.476 567.706 158.555 589.21 204.784L545.714 216.695C522.614 171.104 484.478 134.889 437.755 114.174C391.033 93.4583 338.589 89.5135 289.294 103.006V103.006ZM149.996 417.014C168.922 454.343 198.023 485.555 233.936 507.045C269.85 528.535 311.111 539.426 352.952 538.46C394.793 537.494 435.507 524.709 470.391 501.584C505.274 478.459 532.903 445.936 550.085 407.774C551.215 405.024 552.886 402.53 554.999 400.439C557.112 398.348 559.624 396.704 562.385 395.603C565.146 394.503 568.101 393.969 571.073 394.033C574.045 394.097 576.973 394.758 579.684 395.977C582.396 397.196 584.834 398.947 586.855 401.127C588.875 403.307 590.437 405.871 591.447 408.667C592.457 411.463 592.894 414.433 592.733 417.401C592.572 420.369 591.816 423.275 590.51 425.945C569.577 472.435 535.731 511.934 492.999 539.744C450.266 567.554 400.445 582.505 349.461 582.819C298.477 583.133 248.476 568.797 205.404 541.515C162.332 514.233 128.003 475.154 106.499 428.925L149.996 417.014Z" fill="white"/>
</g>
<path d="M241.137 431V415.1H242.937C247.737 415.1 251.837 414.3 255.237 412.7C258.637 410.9 261.837 408.4 264.837 405.2C267.837 402 270.937 398.3 274.137 394.1L326.637 325.7L277.137 248.6C274.937 245 272.737 242.1 270.537 239.9C268.337 237.5 265.737 235.7 262.737 234.5C259.737 233.3 255.937 232.7 251.337 232.7H247.437V216.8H346.737V232.7H345.837C339.037 232.7 334.337 233.6 331.737 235.4C329.337 237 328.137 239 328.137 241.4C328.137 243.4 328.837 246 330.237 249.2C331.837 252.4 333.737 255.7 335.937 259.1L360.837 296.3L386.937 259.7C388.737 256.9 390.537 253.8 392.337 250.4C394.137 247 395.037 244 395.037 241.4C395.037 237.8 393.337 235.5 389.937 234.5C386.737 233.3 382.837 232.7 378.237 232.7H377.337V216.8H447.537V232.7H444.837C441.037 232.7 437.537 233.4 434.337 234.8C431.337 236.2 428.337 238.5 425.337 241.7C422.537 244.7 419.137 248.9 415.137 254.3L371.637 313.7L426.837 399.2C429.437 403.2 432.037 406.4 434.637 408.8C437.437 411.2 440.237 412.9 443.037 413.9C445.837 414.7 448.437 415.1 450.837 415.1H454.737V431H355.737V415.1H357.237C363.237 415.1 367.737 414.3 370.737 412.7C373.737 410.9 375.237 408.4 375.237 405.2C375.237 403 374.637 400.6 373.437 398C372.437 395.4 369.737 390.9 365.337 384.5L337.737 342.8L305.337 386.6C304.137 388.2 302.937 390.1 301.737 392.3C300.537 394.3 299.537 396.4 298.737 398.6C297.937 400.6 297.537 402.7 297.537 404.9C297.537 408.1 298.937 410.6 301.737 412.4C304.537 414.2 309.237 415.1 315.837 415.1H316.737V431H241.137Z" fill="#F728AF"/>
</g>
<defs>
<clipPath id="clip0_9_3">
<rect width="713" height="658" fill="white"/>
</clipPath>
<clipPath id="clip1_9_3">
<rect width="709.509" height="709.509" fill="white" transform="translate(-88 68.3952) rotate(-15.3147)"/>
</clipPath>
</defs>
</svg>
