<svg width="1792" height="1193" viewBox="0 0 1792 1193" fill="none" xmlns="http://www.w3.org/2000/svg">
<g clip-path="url(#clip0_9_3)">
<rect width="1792" height="1193" fill="black"/>
<g clip-path="url(#clip1_9_3)">
<path d="M1035.29 297.694L1203.46 251.642C1205.49 251.086 1207.64 251.121 1209.65 251.742C1211.67 252.363 1213.46 253.545 1214.83 255.149C1216.19 256.753 1217.07 258.713 1217.36 260.799C1217.66 262.885 1217.35 265.011 1216.47 266.928L1160.03 390.891C1159.36 392.369 1158.37 393.681 1157.13 394.734C1155.89 395.787 1154.44 396.555 1152.87 396.984C1151.3 397.413 1149.66 397.493 1148.06 397.217C1146.46 396.941 1144.94 396.317 1143.61 395.388L1031.88 317.478C1030.15 316.273 1028.8 314.601 1027.99 312.657C1027.18 310.713 1026.94 308.578 1027.3 306.502C1027.66 304.426 1028.6 302.495 1030.01 300.936C1031.43 299.376 1033.26 298.251 1035.29 297.694V297.694ZM588.249 512.067L756.419 466.015C758.45 465.458 760.281 464.334 761.697 462.774C763.112 461.214 764.054 459.283 764.412 457.207C764.77 455.131 764.529 452.996 763.717 451.052C762.905 449.108 761.557 447.436 759.829 446.231L648.103 368.321C646.77 367.392 645.249 366.768 643.648 366.492C642.047 366.216 640.405 366.296 638.838 366.725C637.271 367.154 635.818 367.922 634.581 368.975C633.344 370.028 632.353 371.34 631.679 372.818L575.235 496.781C574.362 498.698 574.054 500.824 574.346 502.91C574.638 504.996 575.518 506.956 576.883 508.56C578.249 510.164 580.043 511.346 582.056 511.967C584.069 512.588 586.217 512.623 588.249 512.067V512.067Z" fill="white"/>
<path fill-rule="evenodd" clip-rule="evenodd" d="M837.294 168.006C770.915 186.184 719.831 232.678 693.624 290.936C692.494 293.685 690.823 296.179 688.71 298.27C686.597 300.361 684.085 302.005 681.324 303.106C678.563 304.206 675.608 304.74 672.637 304.676C669.665 304.612 666.736 303.951 664.025 302.732C661.314 301.513 658.875 299.762 656.854 297.582C654.834 295.402 653.272 292.838 652.262 290.042C651.252 287.246 650.815 284.276 650.976 281.308C651.137 278.34 651.893 275.434 653.2 272.764C674.133 226.275 707.978 186.776 750.71 158.965C793.443 131.155 843.264 116.204 894.248 115.89C945.232 115.576 995.234 129.912 1038.31 157.194C1081.38 184.476 1115.71 223.555 1137.21 269.784L1093.71 281.695C1070.61 236.104 1032.48 199.889 985.755 179.174C939.033 158.458 886.59 154.514 837.294 168.006V168.006ZM697.996 482.014C716.922 519.343 746.023 550.555 781.936 572.045C817.85 593.535 859.111 604.426 900.952 603.46C942.793 602.494 983.507 589.709 1018.39 566.584C1053.27 543.459 1080.9 510.936 1098.09 472.774C1099.22 470.024 1100.89 467.53 1103 465.439C1105.11 463.348 1107.62 461.704 1110.39 460.603C1113.15 459.503 1116.1 458.969 1119.07 459.033C1122.04 459.097 1124.97 459.758 1127.68 460.977C1130.4 462.196 1132.83 463.947 1134.85 466.127C1136.88 468.307 1138.44 470.871 1139.45 473.667C1140.46 476.463 1140.89 479.433 1140.73 482.401C1140.57 485.369 1139.82 488.275 1138.51 490.945C1117.58 537.435 1083.73 576.934 1041 604.744C998.266 632.554 948.445 647.505 897.461 647.819C846.477 648.133 796.476 633.797 753.404 606.515C710.332 579.233 676.003 540.154 654.499 493.925L697.996 482.014Z" fill="white"/>
</g>
<path d="M789.137 496V480.1H790.937C795.737 480.1 799.837 479.3 803.237 477.7C806.637 475.9 809.837 473.4 812.837 470.2C815.837 467 818.937 463.3 822.137 459.1L874.637 390.7L825.137 313.6C822.937 310 820.737 307.1 818.537 304.9C816.337 302.5 813.737 300.7 810.737 299.5C807.737 298.3 803.937 297.7 799.337 297.7H795.437V281.8H894.737V297.7H893.837C887.037 297.7 882.337 298.6 879.737 300.4C877.337 302 876.137 304 876.137 306.4C876.137 308.4 876.837 311 878.237 314.2C879.837 317.4 881.737 320.7 883.937 324.1L908.837 361.3L934.937 324.7C936.737 321.9 938.537 318.8 940.337 315.4C942.137 312 943.037 309 943.037 306.4C943.037 302.8 941.337 300.5 937.937 299.5C934.737 298.3 930.837 297.7 926.237 297.7H925.337V281.8H995.537V297.7H992.837C989.037 297.7 985.537 298.4 982.337 299.8C979.337 301.2 976.337 303.5 973.337 306.7C970.537 309.7 967.137 313.9 963.137 319.3L919.637 378.7L974.837 464.2C977.437 468.2 980.037 471.4 982.637 473.8C985.437 476.2 988.237 477.9 991.037 478.9C993.837 479.7 996.437 480.1 998.837 480.1H1002.74V496H903.737V480.1H905.237C911.237 480.1 915.737 479.3 918.737 477.7C921.737 475.9 923.237 473.4 923.237 470.2C923.237 468 922.637 465.6 921.437 463C920.437 460.4 917.737 455.9 913.337 449.5L885.737 407.8L853.337 451.6C852.137 453.2 850.937 455.1 849.737 457.3C848.537 459.3 847.537 461.4 846.737 463.6C845.937 465.6 845.537 467.7 845.537 469.9C845.537 473.1 846.937 475.6 849.737 477.4C852.537 479.2 857.237 480.1 863.837 480.1H864.737V496H789.137Z" fill="#F728AF"/>
</g>
<defs>
<clipPath id="clip0_9_3">
<rect width="1792" height="1193" fill="white"/>
</clipPath>
<clipPath id="clip1_9_3">
<rect width="709.509" height="709.509" fill="white" transform="translate(460 133.395) rotate(-15.3147)"/>
</clipPath>
</defs>
</svg>
